<mxfile host="65bd71144e">
    <diagram id="shop-item-dialog-layout" name="ShopItemDialog">
        <mxGraphModel dx="1254" dy="1169" grid="1" gridSize="10" guides="1" tooltips="1" connect="1" arrows="1" fold="1" page="1" pageScale="1" pageWidth="1200" pageHeight="800" background="#1a1a2e" math="0" shadow="0">
            <root>
                <mxCell id="0"/>
                <mxCell id="1" parent="0"/>
                <!-- 背景オーバーレイ -->
                <mxCell id="overlay" value="" style="rounded=0;whiteSpace=wrap;html=1;fillColor=#000000;strokeColor=none;opacity=60;" parent="1" vertex="1">
                    <mxGeometry x="0" y="0" width="1200" height="800" as="geometry"/>
                </mxCell>
                <!-- ダイアログコンテナ -->
                <mxCell id="dialog-container" value="" style="rounded=1;whiteSpace=wrap;html=1;fillColor=#1e1e30;strokeColor=#3d3d55;shadow=1;" parent="1" vertex="1">
                    <mxGeometry x="250" y="100" width="700" height="600" as="geometry"/>
                </mxCell>
                <!-- ダイアログヘッダー -->
                <mxCell id="dialog-header" value="" style="rounded=0;whiteSpace=wrap;html=1;fillColor=#2a2a3e;strokeColor=none;arcSize=0;" parent="1" vertex="1">
                    <mxGeometry x="250" y="100" width="700" height="80" as="geometry"/>
                </mxCell>
                <!-- アイテムアイコン -->
                <mxCell id="item-icon-bg" value="" style="ellipse;whiteSpace=wrap;html=1;fillColor=#3498db;strokeColor=#2980b9;" parent="1" vertex="1">
                    <mxGeometry x="280" y="110" width="60" height="60" as="geometry"/>
                </mxCell>
                <mxCell id="item-icon" value="📈" style="text;html=1;strokeColor=none;fillColor=none;align=center;verticalAlign=middle;whiteSpace=wrap;rounded=0;fontSize=32;" parent="1" vertex="1">
                    <mxGeometry x="280" y="110" width="60" height="60" as="geometry"/>
                </mxCell>
                <!-- アイテム名 -->
                <mxCell id="item-name" value="スコア倍率アップ" style="text;html=1;strokeColor=none;fillColor=none;align=left;verticalAlign=middle;whiteSpace=wrap;rounded=0;fontSize=28;fontColor=#ffffff;fontStyle=1;" parent="1" vertex="1">
                    <mxGeometry x="360" y="115" width="300" height="40" as="geometry"/>
                </mxCell>
                <!-- カテゴリ -->
                <mxCell id="item-category" value="パワーアップ系" style="rounded=1;whiteSpace=wrap;html=1;fillColor=#5c5c7e;strokeColor=none;fontSize=12;fontColor=#ffffff;" parent="1" vertex="1">
                    <mxGeometry x="360" y="155" width="100" height="20" as="geometry"/>
                </mxCell>
                <!-- 閉じるボタン -->
                <mxCell id="close-btn" value="✕" style="rounded=1;whiteSpace=wrap;html=1;fillColor=#dc3545;strokeColor=#b02a37;fontSize=20;fontColor=#ffffff;fontStyle=1;" parent="1" vertex="1">
                    <mxGeometry x="890" y="120" width="40" height="40" as="geometry"/>
                </mxCell>
                <!-- メインコンテンツエリア -->
                <mxCell id="content-area" value="" style="rounded=0;whiteSpace=wrap;html=1;fillColor=none;strokeColor=none;" parent="1" vertex="1">
                    <mxGeometry x="270" y="200" width="660" height="380" as="geometry"/>
                </mxCell>
                <!-- 左側：レベル情報 -->
                <mxCell id="level-info-container" value="" style="rounded=1;whiteSpace=wrap;html=1;fillColor=#2a2a3e;strokeColor=#3d3d55;" parent="1" vertex="1">
                    <mxGeometry x="290" y="220" width="300" height="340" as="geometry"/>
                </mxCell>
                <mxCell id="level-title" value="レベル情報" style="text;html=1;strokeColor=none;fillColor=none;align=center;verticalAlign=middle;whiteSpace=wrap;rounded=0;fontSize=18;fontColor=#ffffff;fontStyle=1;" parent="1" vertex="1">
                    <mxGeometry x="290" y="230" width="300" height="30" as="geometry"/>
                </mxCell>
                <!-- 現在レベル -->
                <mxCell id="current-level-box" value="" style="rounded=1;whiteSpace=wrap;html=1;fillColor=#333344;strokeColor=#444455;" parent="1" vertex="1">
                    <mxGeometry x="310" y="270" width="260" height="60" as="geometry"/>
                </mxCell>
                <mxCell id="current-level-label" value="現在のレベル" style="text;html=1;strokeColor=none;fillColor=none;align=center;verticalAlign=middle;whiteSpace=wrap;rounded=0;fontSize=12;fontColor=#888888;" parent="1" vertex="1">
                    <mxGeometry x="310" y="275" width="260" height="20" as="geometry"/>
                </mxCell>
                <mxCell id="current-level-value" value="Lv.2 / 5" style="text;html=1;strokeColor=none;fillColor=none;align=center;verticalAlign=middle;whiteSpace=wrap;rounded=0;fontSize=20;fontColor=#ffd700;fontStyle=1;" parent="1" vertex="1">
                    <mxGeometry x="310" y="295" width="260" height="30" as="geometry"/>
                </mxCell>
                <!-- レベルバー -->
                <mxCell id="level-bar-bg" value="" style="rounded=1;whiteSpace=wrap;html=1;fillColor=#1a1a1a;strokeColor=#333333;" parent="1" vertex="1">
                    <mxGeometry x="320" y="340" width="240" height="20" as="geometry"/>
                </mxCell>
                <mxCell id="level-bar-fill" value="" style="rounded=1;whiteSpace=wrap;html=1;fillColor=#2ecc71;strokeColor=none;" parent="1" vertex="1">
                    <mxGeometry x="320" y="340" width="96" height="20" as="geometry"/>
                </mxCell>
                <!-- 現在の効果 -->
                <mxCell id="current-effect-box" value="" style="rounded=1;whiteSpace=wrap;html=1;fillColor=#333344;strokeColor=#444455;" parent="1" vertex="1">
                    <mxGeometry x="310" y="375" width="260" height="80" as="geometry"/>
                </mxCell>
                <mxCell id="current-effect-label" value="現在の効果" style="text;html=1;strokeColor=none;fillColor=none;align=center;verticalAlign=middle;whiteSpace=wrap;rounded=0;fontSize=12;fontColor=#888888;" parent="1" vertex="1">
                    <mxGeometry x="310" y="380" width="260" height="20" as="geometry"/>
                </mxCell>
                <mxCell id="current-effect-value" value="スコア 1.2倍" style="text;html=1;strokeColor=none;fillColor=none;align=center;verticalAlign=middle;whiteSpace=wrap;rounded=0;fontSize=18;fontColor=#90ee90;fontStyle=1;" parent="1" vertex="1">
                    <mxGeometry x="310" y="405" width="260" height="25" as="geometry"/>
                </mxCell>
                <mxCell id="current-effect-desc" value="全てのスコアが20%増加" style="text;html=1;strokeColor=none;fillColor=none;align=center;verticalAlign=middle;whiteSpace=wrap;rounded=0;fontSize=12;fontColor=#cccccc;" parent="1" vertex="1">
                    <mxGeometry x="310" y="430" width="260" height="20" as="geometry"/>
                </mxCell>
                <!-- 次レベル効果 -->
                <mxCell id="next-effect-box" value="" style="rounded=1;whiteSpace=wrap;html=1;fillColor=#333344;strokeColor=#444455;" parent="1" vertex="1">
                    <mxGeometry x="310" y="465" width="260" height="80" as="geometry"/>
                </mxCell>
                <mxCell id="next-effect-label" value="次レベルの効果" style="text;html=1;strokeColor=none;fillColor=none;align=center;verticalAlign=middle;whiteSpace=wrap;rounded=0;fontSize=12;fontColor=#888888;" parent="1" vertex="1">
                    <mxGeometry x="310" y="470" width="260" height="20" as="geometry"/>
                </mxCell>
                <mxCell id="next-effect-value" value="スコア 1.3倍" style="text;html=1;strokeColor=none;fillColor=none;align=center;verticalAlign=middle;whiteSpace=wrap;rounded=0;fontSize=18;fontColor=#87ceeb;fontStyle=1;" parent="1" vertex="1">
                    <mxGeometry x="310" y="495" width="260" height="25" as="geometry"/>
                </mxCell>
                <mxCell id="next-effect-desc" value="全てのスコアが30%増加" style="text;html=1;strokeColor=none;fillColor=none;align=center;verticalAlign=middle;whiteSpace=wrap;rounded=0;fontSize=12;fontColor=#cccccc;" parent="1" vertex="1">
                    <mxGeometry x="310" y="520" width="260" height="20" as="geometry"/>
                </mxCell>
                <!-- 右側：詳細情報 -->
                <mxCell id="detail-container" value="" style="rounded=1;whiteSpace=wrap;html=1;fillColor=#2a2a3e;strokeColor=#3d3d55;" parent="1" vertex="1">
                    <mxGeometry x="610" y="220" width="300" height="340" as="geometry"/>
                </mxCell>
                <mxCell id="detail-title" value="詳細情報" style="text;html=1;strokeColor=none;fillColor=none;align=center;verticalAlign=middle;whiteSpace=wrap;rounded=0;fontSize=18;fontColor=#ffffff;fontStyle=1;" parent="1" vertex="1">
                    <mxGeometry x="610" y="230" width="300" height="30" as="geometry"/>
                </mxCell>
                <!-- 説明文 -->
                <mxCell id="description-box" value="" style="rounded=1;whiteSpace=wrap;html=1;fillColor=#333344;strokeColor=#444455;" parent="1" vertex="1">
                    <mxGeometry x="630" y="270" width="260" height="100" as="geometry"/>
                </mxCell>
                <mxCell id="description-text" value="ゲーム中に獲得する全てのスコアに倍率がかかります。高レベルになるほど効果が大きくなり、ハイスコアを狙いやすくなります。" style="text;html=1;strokeColor=none;fillColor=none;align=left;verticalAlign=top;whiteSpace=wrap;rounded=0;fontSize=12;fontColor=#cccccc;" parent="1" vertex="1">
                    <mxGeometry x="640" y="280" width="240" height="80" as="geometry"/>
                </mxCell>
                <!-- コスト一覧 -->
                <mxCell id="cost-list-box" value="" style="rounded=1;whiteSpace=wrap;html=1;fillColor=#333344;strokeColor=#444455;" parent="1" vertex="1">
                    <mxGeometry x="630" y="380" width="260" height="165" as="geometry"/>
                </mxCell>
                <mxCell id="cost-list-title" value="レベル別コスト" style="text;html=1;strokeColor=none;fillColor=none;align=center;verticalAlign=middle;whiteSpace=wrap;rounded=0;fontSize=14;fontColor=#ffffff;fontStyle=1;" parent="1" vertex="1">
                    <mxGeometry x="630" y="385" width="260" height="25" as="geometry"/>
                </mxCell>
                <mxCell id="cost-lv1" value="Lv.1: 100 AP ✓" style="text;html=1;strokeColor=none;fillColor=none;align=left;verticalAlign=middle;whiteSpace=wrap;rounded=0;fontSize=12;fontColor=#888888;" parent="1" vertex="1">
                    <mxGeometry x="650" y="415" width="220" height="20" as="geometry"/>
                </mxCell>
                <mxCell id="cost-lv2" value="Lv.2: 300 AP ✓" style="text;html=1;strokeColor=none;fillColor=none;align=left;verticalAlign=middle;whiteSpace=wrap;rounded=0;fontSize=12;fontColor=#888888;" parent="1" vertex="1">
                    <mxGeometry x="650" y="435" width="220" height="20" as="geometry"/>
                </mxCell>
                <mxCell id="cost-lv3" value="Lv.3: 500 AP ← 次" style="text;html=1;strokeColor=none;fillColor=none;align=left;verticalAlign=middle;whiteSpace=wrap;rounded=0;fontSize=12;fontColor=#ffd700;fontStyle=1;" parent="1" vertex="1">
                    <mxGeometry x="650" y="455" width="220" height="20" as="geometry"/>
                </mxCell>
                <mxCell id="cost-lv4" value="Lv.4: 1,000 AP" style="text;html=1;strokeColor=none;fillColor=none;align=left;verticalAlign=middle;whiteSpace=wrap;rounded=0;fontSize=12;fontColor=#cccccc;" parent="1" vertex="1">
                    <mxGeometry x="650" y="475" width="220" height="20" as="geometry"/>
                </mxCell>
                <mxCell id="cost-lv5" value="Lv.5: 2,000 AP" style="text;html=1;strokeColor=none;fillColor=none;align=left;verticalAlign=middle;whiteSpace=wrap;rounded=0;fontSize=12;fontColor=#cccccc;" parent="1" vertex="1">
                    <mxGeometry x="650" y="495" width="220" height="20" as="geometry"/>
                </mxCell>
                <mxCell id="cost-total" value="合計: 3,900 AP" style="text;html=1;strokeColor=none;fillColor=none;align=center;verticalAlign=middle;whiteSpace=wrap;rounded=0;fontSize=12;fontColor=#888888;" parent="1" vertex="1">
                    <mxGeometry x="630" y="520" width="260" height="20" as="geometry"/>
                </mxCell>
                <!-- 購入エリア -->
                <mxCell id="purchase-area" value="" style="rounded=0;whiteSpace=wrap;html=1;fillColor=#2a2a3e;strokeColor=none;" parent="1" vertex="1">
                    <mxGeometry x="250" y="580" width="700" height="120" as="geometry"/>
                </mxCell>
                <!-- 購入コスト表示 -->
                <mxCell id="purchase-cost-box" value="" style="rounded=1;whiteSpace=wrap;html=1;fillColor=#333344;strokeColor=#444455;" parent="1" vertex="1">
                    <mxGeometry x="290" y="600" width="260" height="80" as="geometry"/>
                </mxCell>
                <mxCell id="purchase-cost-label" value="購入コスト" style="text;html=1;strokeColor=none;fillColor=none;align=center;verticalAlign=middle;whiteSpace=wrap;rounded=0;fontSize=14;fontColor=#888888;" parent="1" vertex="1">
                    <mxGeometry x="290" y="605" width="260" height="20" as="geometry"/>
                </mxCell>
                <mxCell id="purchase-cost-value" value="500 AP" style="text;html=1;strokeColor=none;fillColor=none;align=center;verticalAlign=middle;whiteSpace=wrap;rounded=0;fontSize=28;fontColor=#ffd700;fontStyle=1;" parent="1" vertex="1">
                    <mxGeometry x="290" y="625" width="260" height="35" as="geometry"/>
                </mxCell>
                <mxCell id="ap-comparison" value="所持AP: 2,450 → 1,950" style="text;html=1;strokeColor=none;fillColor=none;align=center;verticalAlign=middle;whiteSpace=wrap;rounded=0;fontSize=12;fontColor=#90ee90;" parent="1" vertex="1">
                    <mxGeometry x="290" y="660" width="260" height="15" as="geometry"/>
                </mxCell>
                <!-- 購入ボタン -->
                <mxCell id="purchase-btn" value="購入する" style="rounded=1;whiteSpace=wrap;html=1;fillColor=#2ecc71;strokeColor=#27ae60;fontSize=20;fontColor=#ffffff;fontStyle=1;shadow=1;arcSize=50;" parent="1" vertex="1">
                    <mxGeometry x="580" y="615" width="150" height="50" as="geometry"/>
                </mxCell>
                <!-- キャンセルボタン -->
                <mxCell id="cancel-btn" value="キャンセル" style="rounded=1;whiteSpace=wrap;html=1;fillColor=#5c5c7e;strokeColor=#4c4c6e;fontSize=16;fontColor=#ffffff;" parent="1" vertex="1">
                    <mxGeometry x="760" y="615" width="120" height="50" as="geometry"/>
                </mxCell>
            </root>
        </mxGraphModel>
    </diagram>
</mxfile>